<?xml version="1.0" encoding="UTF-8"?>
<svg version="1.1" viewBox="0 0 1004 166.07" xmlns="http://www.w3.org/2000/svg" xmlns:xlink="http://www.w3.org/1999/xlink">
<defs>
<clipPath id="d">
<path transform="translate(-1218.6 -602.28)" d="m0 1080h1920v-1080h-1920z"/>
</clipPath>
<clipPath id="c">
<path transform="translate(-1314.6 -577.81)" d="m0 1080h1920v-1080h-1920z"/>
</clipPath>
<clipPath id="b">
<path transform="translate(-583.5 -548.14)" d="m0 1080h1920v-1080h-1920z"/>
</clipPath>
<clipPath id="a">
<path transform="translate(-840.63 -543.44)" d="m0 1080h1920v-1080h-1920z"/>
</clipPath>
<clipPath id="g">
<path transform="translate(-757.27 -496.5)" d="m0 1080h1920v-1080h-1920z"/>
</clipPath>
<clipPath id="f">
<path transform="translate(-757.27 -577.82)" d="m0 1080h1920v-1080h-1920z"/>
</clipPath>
<clipPath id="e">
<path transform="translate(-1094.2 -518.43)" d="m0 1080h1920v-1080h-1920z"/>
</clipPath>
</defs>
<g transform="translate(-778 -636.97)" fill="#231916">
<path transform="matrix(1.3333 0 0 -1.3333 1624.9 636.97)" d="m0 0c-3.777 0-7.289-1.944-9.293-5.146l-63.061-100.74h25.869l46.485 74.26 46.485-74.26h25.869l-63.061 100.74c-2.004 3.202-5.516 5.146-9.293 5.146" clip-path="url(#d)"/>
<path transform="matrix(1.3333 0 0 -1.3333 1752.8 669.59)" d="m0 0v-81.305h21.927v103.23z" clip-path="url(#c)"/>
<path transform="matrix(1.3333 0 0 -1.3333 778 709.15)" d="m0 0c0-28.472 23.164-51.636 51.636-51.636h69.61c12.763 0 23.146 10.383 23.146 23.145v40.108h-62.8l-21.927-21.928h62.8v-18.18c0-0.672-0.547-1.218-1.219-1.218h-69.61c-16.381 0-29.709 13.328-29.709 29.709 0 16.382 13.328 29.71 29.709 29.71h92.756v21.927h-92.756c-28.472 0-51.636-23.164-51.636-51.637" clip-path="url(#b)"/>
<path transform="matrix(1.3333 0 0 -1.3333 1120.8 715.41)" d="m0 0c-4.717 0-8.754 4.879-9.308 10.938 0.554 6.06 4.591 10.939 9.308 10.939h90.66c0.195-0.25 0.504-0.82 0.504-1.719v-20.158zm91.069 43.804h-91.069c-16.386 0-29.871-13.863-31.194-31.445h-0.106v-2.842h0.106c1.323-17.582 14.808-31.444 31.194-31.444h91.164v-20.142c0-0.9-0.309-1.47-0.504-1.719h-101.42l-19.119-21.927h120.95c12.143 0 22.022 10.607 22.022 23.646v62.227c0 13.038-9.879 23.646-22.022 23.646" clip-path="url(#a)"/>
<path transform="matrix(1.3333 0 0 -1.3333 1009.7 777.99)" d="m0 0h21.927v80.055l-21.927-21.928z" clip-path="url(#g)"/>
<path transform="matrix(1.3333 0 0 -1.3333 1009.7 669.57)" d="m0 0h21.927v21.99l-21.927-0.063z" clip-path="url(#f)"/>
<path transform="matrix(1.3333 0 0 -1.3333 1459 748.76)" d="m0 0h-88.262c-3.326 0-6.137 2.81-6.137 6.136 0 3.327 2.811 6.137 6.137 6.137h94.399v-6.137c0-3.326-2.811-6.136-6.137-6.136m-2.651 68.463h-110.88l19.213-21.927h91.663c4.763 0 8.788-3.182 8.788-6.949v-5.386h-94.399c-15.475 0-28.064-12.589-28.064-28.065 0-15.475 12.589-28.064 28.064-28.064h88.262c15.073 0 27.404 11.945 28.034 26.867h0.03v34.648c0 15.923-13.778 28.876-30.715 28.876" clip-path="url(#e)"/>
</g>
</svg>
